<mxfile host="drawio-plugin" modified="2023-06-14T15:42:48.004Z" agent="5.0 (Macintosh; Intel Mac OS X 10_15_7) AppleWebKit/537.36 (KHTML, like Gecko) Chrome/104.0.5112.102 Safari/537.36" etag="Y-yr7Xa5dC2aJU_bYAyN" version="20.5.3" type="embed"><diagram name="Page-1" id="5f0bae14-7c28-e335-631c-24af17079c00"><mxGraphModel dx="1352" dy="1590" grid="1" gridSize="10" guides="1" tooltips="1" connect="1" arrows="1" fold="1" page="1" pageScale="1" pageWidth="1100" pageHeight="850" background="none" math="0" shadow="0"><root><mxCell id="0"/><mxCell id="1" parent="0"/><mxCell id="9NBJHfuYttUKH2QfWDxh-12" style="edgeStyle=orthogonalEdgeStyle;rounded=0;orthogonalLoop=1;jettySize=auto;html=1;exitX=0;exitY=0;exitDx=105;exitDy=0;exitPerimeter=0;entryX=0;entryY=0;entryDx=115;entryDy=370;entryPerimeter=0;" parent="1" source="39150e848f15840c-1" target="39150e848f15840c-2" edge="1"><mxGeometry relative="1" as="geometry"><mxPoint x="307.5" y="184.5" as="targetPoint"/></mxGeometry></mxCell><mxCell id="lzqeXDMp_YOZzJIWUaGG-1" value="Socket" style="edgeLabel;html=1;align=center;verticalAlign=middle;resizable=0;points=[];fontSize=16;" parent="9NBJHfuYttUKH2QfWDxh-12" vertex="1" connectable="0"><mxGeometry x="0.0723" y="-2" relative="1" as="geometry"><mxPoint x="-22" y="3" as="offset"/></mxGeometry></mxCell><mxCell id="39150e848f15840c-1" value="Client" style="verticalAlign=top;align=left;spacingTop=8;spacingLeft=2;spacingRight=12;shape=cube;size=10;direction=south;fontStyle=4;html=1;rounded=0;shadow=0;comic=0;labelBackgroundColor=none;strokeWidth=1;fontFamily=Verdana;fontSize=12" parent="1" vertex="1"><mxGeometry x="80" y="80" width="330" height="220" as="geometry"/></mxCell><mxCell id="39150e848f15840c-2" value="Server" style="verticalAlign=top;align=left;spacingTop=8;spacingLeft=2;spacingRight=12;shape=cube;size=10;direction=south;fontStyle=4;html=1;rounded=0;shadow=0;comic=0;labelBackgroundColor=none;strokeWidth=1;fontFamily=Verdana;fontSize=12" parent="1" vertex="1"><mxGeometry x="670" y="70" width="370" height="220" as="geometry"/></mxCell><mxCell id="39150e848f15840c-4" value="«interface»&lt;br&gt;&lt;b&gt;Client&lt;/b&gt;" style="html=1;rounded=0;shadow=0;comic=0;labelBackgroundColor=none;strokeWidth=1;fontFamily=Verdana;fontSize=12;align=center;" parent="1" vertex="1"><mxGeometry x="110" y="150" width="110" height="50" as="geometry"/></mxCell><mxCell id="39150e848f15840c-5" value="Log4j2" style="shape=component;align=left;spacingLeft=36;rounded=0;shadow=0;comic=0;labelBackgroundColor=none;strokeWidth=1;fontFamily=Verdana;fontSize=12;html=1;" parent="1" vertex="1"><mxGeometry x="240" y="200" width="120" height="60" as="geometry"/></mxCell><mxCell id="9NBJHfuYttUKH2QfWDxh-4" style="edgeStyle=orthogonalEdgeStyle;rounded=0;orthogonalLoop=1;jettySize=auto;html=1;exitX=0.5;exitY=1;exitDx=0;exitDy=0;entryX=0.5;entryY=0;entryDx=0;entryDy=0;entryPerimeter=0;" parent="1" source="39150e848f15840c-7" target="9NBJHfuYttUKH2QfWDxh-1" edge="1"><mxGeometry relative="1" as="geometry"/></mxCell><mxCell id="39150e848f15840c-7" value="Log4j2" style="shape=component;align=left;spacingLeft=36;rounded=0;shadow=0;comic=0;labelBackgroundColor=none;strokeWidth=1;fontFamily=Verdana;fontSize=12;html=1;" parent="1" vertex="1"><mxGeometry x="890" y="180" width="120" height="60" as="geometry"/></mxCell><mxCell id="39150e848f15840c-8" value="«interface»&lt;br&gt;&lt;b&gt;Server&lt;/b&gt;" style="html=1;rounded=0;shadow=0;comic=0;labelBackgroundColor=none;strokeWidth=1;fontFamily=Verdana;fontSize=12;align=center;" parent="1" vertex="1"><mxGeometry x="720" y="140" width="110" height="50" as="geometry"/></mxCell><mxCell id="39150e848f15840c-15" style="edgeStyle=orthogonalEdgeStyle;rounded=0;html=1;labelBackgroundColor=none;startArrow=none;startFill=0;startSize=8;endArrow=open;endFill=0;endSize=16;fontFamily=Verdana;fontSize=12;dashed=1;" parent="1" source="39150e848f15840c-5" target="39150e848f15840c-4" edge="1"><mxGeometry relative="1" as="geometry"><Array as="points"><mxPoint x="300" y="230"/><mxPoint x="165" y="230"/></Array></mxGeometry></mxCell><mxCell id="39150e848f15840c-16" style="edgeStyle=orthogonalEdgeStyle;rounded=0;html=1;dashed=1;labelBackgroundColor=none;startArrow=none;startFill=0;startSize=8;endArrow=open;endFill=0;endSize=16;fontFamily=Verdana;fontSize=12;" parent="1" source="39150e848f15840c-7" target="39150e848f15840c-8" edge="1"><mxGeometry relative="1" as="geometry"/></mxCell><mxCell id="9NBJHfuYttUKH2QfWDxh-1" value="server.log" style="shape=cylinder3;whiteSpace=wrap;html=1;boundedLbl=1;backgroundOutline=1;size=15;" parent="1" vertex="1"><mxGeometry x="910" y="320" width="80" height="80" as="geometry"/></mxCell><mxCell id="9NBJHfuYttUKH2QfWDxh-2" value="client.log" style="shape=cylinder3;whiteSpace=wrap;html=1;boundedLbl=1;backgroundOutline=1;size=15;" parent="1" vertex="1"><mxGeometry x="270" y="345" width="60" height="80" as="geometry"/></mxCell><mxCell id="lzqeXDMp_YOZzJIWUaGG-2" value="" style="endArrow=classic;html=1;rounded=0;exitX=0.5;exitY=1;exitDx=0;exitDy=0;entryX=0.5;entryY=0;entryDx=0;entryDy=0;entryPerimeter=0;" parent="1" source="39150e848f15840c-5" target="9NBJHfuYttUKH2QfWDxh-2" edge="1"><mxGeometry width="50" height="50" relative="1" as="geometry"><mxPoint x="550" y="500" as="sourcePoint"/><mxPoint x="600" y="450" as="targetPoint"/></mxGeometry></mxCell></root></mxGraphModel></diagram></mxfile>